#!OML:ASF F:\twosubjects\two\Thursday\Session 1\Rory.ASF
:FULLY-SPECIFIED
:DEGREES
309
root 8.17442 18.4516 -7.868 4.57544 62.893 -3.06065
lowerback 1.48579 -2.32357 -2.6005
upperback 4.99821 -2.80046 -4.35857
thorax 4.24023 -1.34949 -3.11391
lowerneck 3.40572 -12.0939 -13.5431
upperneck 28.5796 -14.9923 -1.34295
head 9.56621 -8.31442 0.593802
rclavicle -2.3059e-014 -1.59028e-015
rhumerus -11.9399 6.66131 -14.9618
rradius 88.6264
rwrist -35.6381
rhand -4.02587 18.9312
rfingers 7.12502
rthumb 21.7291 -9.86928
lclavicle -2.3059e-014 -1.59028e-015
lhumerus -23.0841 4.40896 73.0249
lradius 35.7632
lwrist -13.4113
lhand -12.7253 31.1663
lfingers 7.12502
lthumb 13.3579 60.7181
rfemur -24.2187 14.7114 10.7326
rtibia 20.6759
rfoot -8.99164 -3.58009
rtoes 1.01829
lfemur -7.86087 1.31581 -20.4582
ltibia 15.2504
lfoot -13.0738 4.34038
ltoes 10.1817
310
root 8.20033 18.4483 -7.83267 4.59057 62.9615 -2.78123
lowerback 1.5288 -2.30229 -2.61074
upperback 5.00655 -2.76937 -4.42979
thorax 4.22307 -1.33198 -3.17995
lowerneck 3.41368 -12.0803 -13.6031
upperneck 28.6193 -15.0194 -1.15866
head 9.60141 -8.31851 0.659583
rclavicle -1.27222e-014 2.06736e-014
rhumerus -12.3611 6.85131 -14.8566
rradius 89.2702
rwrist -35.5504
rhand -3.78323 19.5805
rfingers 7.12502
rthumb 21.9621 -9.19281
lclavicle -1.27222e-014 2.06736e-014
lhumerus -23.2917 4.72815 73.0844
lradius 35.1228
lwrist -14.1565
lhand -12.3395 31.0489
lfingers 7.12502
lthumb 13.7298 60.576
rfemur -24.0196 15.233 10.7219
rtibia 20.9559
rfoot -8.43619 -3.98981
rtoes 3.44597
lfemur -7.35836 1.52772 -20.5112
ltibia 15.0189
lfoot -13.0441 4.14355
ltoes 6.90869
311
root 8.23238 18.457 -7.7778 5.20497 63.1169 -2.13524
lowerback 1.13944 -2.2882 -2.97759
upperback 4.93539 -2.7221 -4.53748
thorax 4.38521 -1.31922 -3.10247
lowerneck 3.4759 -12.0641 -13.6972
upperneck 28.7653 -15.0809 -0.833786
head 9.68322 -8.33252 0.773452
rclavicle 3.33958e-014 -1.43125e-014
rhumerus -13.0103 7.10762 -14.8246
rradius 90.0946
rwrist -35.6014
rhand -3.33504 19.7118
rfingers 7.12502
rthumb 22.3924 -9.01037
lclavicle 3.33958e-014 -1.43125e-014
lhumerus -23.5589 4.92106 73.1966
lradius 34.7064
lwrist -14.2555
lhand -12.0013 32.0053
lfingers 7.12502
lthumb 14.0558 61.51
rfemur -23.9843 15.0237 10.6752
rtibia 21.3566
rfoot -7.99313 -4.34871
rtoes 7.87256
lfemur -7.05603 1.74536 -20.6733
ltibia 14.7103
lfoot -12.9475 3.86924
ltoes 4.1798
312
root 8.25905 18.4578 -7.73889 5.66094 63.161 -1.37331
lowerback 1.2726 -2.2638 -3.30558
upperback 4.88025 -2.68706 -4.66025
thorax 4.26455 -1.30972 -3.03819
lowerneck 3.52166 -12.1137 -13.4349
upperneck 28.9203 -15.1246 -0.994612
head 9.69588 -8.34352 0.677926
rclavicle -4.8901e-014 3.49861e-014
rhumerus -13.5065 7.36631 -14.8431
rradius 90.8355
rwrist -35.6358
rhand -3.36109 19.5687
rfingers 7.12502
rthumb 22.3674 -9.15647
lclavicle -4.8901e-014 3.49861e-014
lhumerus -23.831 4.78797 73.4812
lradius 34.2934
lwrist -13.1337
lhand -13.2542 33.2768
lfingers 7.12502
lthumb 12.8482 62.8613
rfemur -23.6623 13.3304 10.9648
rtibia 21.7286
rfoot -7.15845 -3.51535
rtoes 7.41153
lfemur -6.50477 1.60348 -20.9639
ltibia 14.3985
lfoot -12.9629 3.9356
ltoes 7.48912
313
root 8.27977 18.4551 -7.69552 5.73333 63.4544 -0.945389
lowerback 1.49972 -2.32706 -3.54188
upperback 4.8819 -2.77782 -4.69887
thorax 4.14605 -1.36128 -2.93817
lowerneck 3.75444 -12.1981 -13.0223
upperneck 28.848 -15.2227 -1.27804
head 9.56942 -8.37421 0.537613
rclavicle -2.3059e-014 -2.8625e-014
rhumerus -13.9112 7.51705 -14.9175
rradius 91.514
rwrist -35.4648
rhand -3.30932 20.2897
rfingers 7.12502
rthumb 22.4171 -8.4295
lclavicle -2.3059e-014 -2.8625e-014
lhumerus -24.2279 4.5946 73.6826
lradius 33.8059
lwrist -12.0709
lhand -14.8501 33.6388
lfingers 7.12502
lthumb 11.3093 63.3139
rfemur -23.1874 12.74 11.1825
rtibia 22.0697
rfoot -7.3405 -3.81766
rtoes 2.79434
lfemur -5.94242 1.46181 -21.0225
ltibia 14.2209
lfoot -13.018 3.60104
ltoes 11.3212
314
root 8.31157 18.4525 -7.64098 5.80025 63.5914 -0.92973
lowerback 1.09322 -2.37125 -3.61274
upperback 4.82543 -2.8207 -4.59884
thorax 4.32469 -1.38979 -2.81339
lowerneck 3.84688 -12.1973 -13.2154
upperneck 28.8373 -15.2505 -1.17742
head 9.57963 -8.39762 0.600436
rclavicle -1.03368e-014 1.59028e-015
rhumerus -14.19 7.63023 -14.823
rradius 92.2715
rwrist -35.4106
rhand -3.14302 20.8414
rfingers 7.12502
rthumb 22.5767 -7.85846
lclavicle -1.03368e-014 1.59028e-015
lhumerus -24.5529 5.47639 73.6832
lradius 33.0287
lwrist -13.3912
lhand -14.4237 33.1973
lfingers 7.12502
lthumb 11.7205 62.8494
rfemur -23.05 13.3669 11.311
rtibia 22.3187
rfoot -7.88817 -5.11815
rtoes -0.285018
lfemur -5.77749 1.92138 -20.8486
ltibia 14.127
lfoot -13.068 2.78063
ltoes 13.8995
315
root 8.34689 18.4342 -7.59163 5.78246 63.4888 -0.677758
lowerback 1.09257 -2.30901 -3.61402
upperback 4.80415 -2.73514 -4.67406
thorax 4.30127 -1.34498 -2.8878
lowerneck 3.72125 -12.1766 -13.2673
upperneck 29.0045 -15.2599 -0.961174
head 9.68624 -8.39093 0.663618
rclavicle 4.81059e-014 -1.59028e-014
rhumerus -14.7161 7.74611 -14.9499
rradius 93.0361
rwrist -35.4432
rhand -3.25486 21.6667
rfingers 7.12502
rthumb 22.4694 -7.04617
lclavicle 4.81059e-014 -1.59028e-014
lhumerus -24.8086 6.4068 73.447
lradius 32.1548
lwrist -15.2565
lhand -13.3009 32.1781
lfingers 7.12502
lthumb 12.8031 61.7655
rfemur -22.6339 13.1656 11.5767
rtibia 22.4258
rfoot -7.92687 -5.05552
rtoes 1.20556
lfemur -5.27188 2.06725 -20.8679
ltibia 14.0459
lfoot -13.4611 2.70996
ltoes 14.8738
316
root 8.37523 18.4275 -7.53277 5.60618 63.5996 -0.689051
lowerback 1.03539 -2.28525 -3.56717
upperback 4.79991 -2.69289 -4.81296
thorax 4.32193 -1.31789 -3.06001
lowerneck 3.70246 -12.248 -12.7222
upperneck 28.9462 -15.3862 -1.00443
head 9.61438 -8.40277 0.564984
rclavicle 0 -2.06736e-014
rhumerus -15.4378 7.76796 -15.371
rradius 93.9468
rwrist -35.5648
rhand -3.52044 21.5602
rfingers 7.12502
rthumb 22.2144 -7.18328
lclavicle 0 -2.06736e-014
lhumerus -24.9996 6.94816 72.9932
lradius 31.2795
lwrist -16.5738
lhand -12.4061 30.6965
lfingers 7.12502
lthumb 13.6656 60.2278
rfemur -22.3044 12.6975 12.0199
rtibia 22.4825
rfoot -7.77562 -4.47637
rtoes 2.91713
lfemur -4.80065 1.26423 -20.7324
ltibia 13.89
lfoot -13.9009 3.40019
ltoes 14.8929
317
root 8.40273 18.4341 -7.47368 5.17877 63.7241 -1.05144
lowerback 0.847642 -2.26784 -3.44845
upperback 4.75367 -2.66309 -4.83725
thorax 4.37362 -1.29874 -3.15768
lowerneck 3.78302 -12.3396 -12.2135
upperneck 28.883 -15.477 -1.3123
head 9.50417 -8.42336 0.394494
rclavicle -3.57812e-015 3.49861e-014
rhumerus -16.0134 7.79781 -15.6503
rradius 95.0652
rwrist -35.6139
rhand -3.78437 19.3353
rfingers 7.12502
rthumb 21.961 -9.43806
lclavicle -3.57812e-015 3.49861e-014
lhumerus -25.1725 7.83936 72.6315
lradius 30.3004
lwrist -17.8844
lhand -11.9411 29.6601
lfingers 7.12502
lthumb 14.1138 59.1608
rfemur -22.1427 12.6858 12.4684
rtibia 22.6514
rfoot -7.85624 -4.04798
rtoes 4.78159
lfemur -4.26513 0.265801 -20.4385
ltibia 13.4737
lfoot -13.8249 4.18787
ltoes 16.0301
318
root 8.43434 18.4415 -7.41699 4.87503 63.7193 -1.00684
lowerback 0.879588 -2.21209 -3.55259
upperback 4.70853 -2.59251 -4.8261
thorax 4.31571 -1.26787 -3.08262
lowerneck 4.02573 -12.352 -12.0981
upperneck 28.9625 -15.4712 -1.5056
head 9.46345 -8.42715 0.330428
rclavicle 6.55989e-014 1.27222e-014
rhumerus -16.4261 7.84606 -15.7635
rradius 95.7094
rwrist -35.5727
rhand -3.51191 19.4338
rfingers 7.12502
rthumb 22.2226 -9.30872
lclavicle 6.55989e-014 1.27222e-014
lhumerus -25.535 8.44227 72.6363
lradius 29.5105
lwrist -18.4596
lhand -11.7799 29.7154
lfingers 7.12502
lthumb 14.2691 59.2052
rfemur -21.8022 12.5646 12.7415
rtibia 22.9399
rfoot -7.73985 -3.51335
rtoes 4.60108
lfemur -3.27427 -0.146131 -20.3314
ltibia 12.6844
lfoot -13.5721 4.45205
ltoes 17.6136
319
root 8.47216 18.4485 -7.36373 4.7675 63.6822 -0.582762
lowerback 1.0113 -2.1727 -3.72267
upperback 4.72204 -2.54253 -4.84109
thorax 4.26426 -1.24811 -2.99664
lowerneck 4.50052 -12.3151 -12.1395
upperneck 28.8313 -15.4422 -1.60319
head 9.32813 -8.42571 0.345993
rclavicle -6.83819e-014 7.95139e-015
rhumerus -16.8642 7.88441 -15.7846
rradius 96.1076
rwrist -35.6236
rhand -2.84382 22.1188
rfingers 7.12502
rthumb 22.8638 -6.54586
lclavicle -6.83819e-014 7.95139e-015
lhumerus -25.9703 8.78731 72.8521
lradius 28.9154
lwrist -18.3706
lhand -11.9372 30.4706
lfingers 7.12502
lthumb 14.1176 59.971
rfemur -21.3015 13.2237 12.7258
rtibia 23.3285
rfoot -7.61759 -4.16532
rtoes 0.930578
lfemur -2.03027 -0.261836 -20.4155
ltibia 11.7498
lfoot -13.4848 4.42799
ltoes 18.274
